<?xml version="1.0" encoding="utf-8"?>
<!-- Generator: Adobe Illustrator 23.0.3, SVG Export Plug-In . SVG Version: 6.00 Build 0)  -->
<svg version="1.1" id="Слой_1" xmlns="http://www.w3.org/2000/svg" xmlns:xlink="http://www.w3.org/1999/xlink" x="0px" y="0px"
	 viewBox="0 0 28 22" style="enable-background:new 0 0 28 22;" xml:space="preserve">
<style type="text/css">
	.st0{fill:#FFFFFF;}
	.st1{fill:url(#SVGID_1_);}
	.st2{fill:url(#SVGID_2_);}
	.st3{fill:url(#SVGID_3_);}
	.st4{fill:url(#SVGID_4_);}
	.st5{fill:url(#SVGID_5_);}
</style>
<path class="st0" d="M28,17.6c0,2.4-2,4.4-4.3,4.4H0V4.4C0,2,2,0,4.3,0H28V17.6z"/>
<linearGradient id="SVGID_1_" gradientUnits="userSpaceOnUse" x1="-182.6342" y1="174.3624" x2="-179.735" y2="174.3624" gradientTransform="matrix(2.6528 0 0 -1.6385 503.2663 297.6434)">
	<stop  offset="0" style="stop-color:#007940"/>
	<stop  offset="0.2285" style="stop-color:#00873F"/>
	<stop  offset="0.7433" style="stop-color:#40A737"/>
	<stop  offset="1" style="stop-color:#5CB531"/>
</linearGradient>
<path class="st1" d="M20.3,12.8h1.8c0.1,0,0.2,0,0.2,0c0.3-0.1,0.6-0.4,0.6-0.8c0-0.4-0.3-0.7-0.6-0.8c-0.1,0-0.2,0-0.2,0h-1.8V12.8
	z"/>
<linearGradient id="SVGID_2_" gradientUnits="userSpaceOnUse" x1="-253.3905" y1="387.3947" x2="-252.3905" y2="387.3947" gradientTransform="matrix(7.6846 0 0 -19 1965.9757 7371.4507)">
	<stop  offset="0" style="stop-color:#007940"/>
	<stop  offset="0.2285" style="stop-color:#00873F"/>
	<stop  offset="0.7433" style="stop-color:#40A737"/>
	<stop  offset="1" style="stop-color:#5CB531"/>
</linearGradient>
<path class="st2" d="M21.9,1.5c-1.7,0-3.1,1.4-3.1,3.2v3.3h4.4c0.1,0,0.2,0,0.3,0c1,0.1,1.7,0.6,1.7,1.5c0,0.7-0.5,1.3-1.4,1.4v0
	c1,0.1,1.8,0.6,1.8,1.5c0,1-0.9,1.6-2,1.6h-4.8v6.4h4.6c1.7,0,3.1-1.4,3.1-3.2V1.5H21.9z"/>
<linearGradient id="SVGID_3_" gradientUnits="userSpaceOnUse" x1="-172.7136" y1="153.168" x2="-169.5489" y2="153.168" gradientTransform="matrix(2.4303 0 0 -1.502 438.5211 239.5101)">
	<stop  offset="0" style="stop-color:#007940"/>
	<stop  offset="0.2285" style="stop-color:#00873F"/>
	<stop  offset="0.7433" style="stop-color:#40A737"/>
	<stop  offset="1" style="stop-color:#5CB531"/>
</linearGradient>
<path class="st3" d="M22.7,9.5c0-0.4-0.3-0.7-0.6-0.7c0,0-0.1,0-0.2,0h-1.6v1.5h1.6c0.1,0,0.2,0,0.2,0C22.4,10.1,22.7,9.9,22.7,9.5z
	"/>
<linearGradient id="SVGID_4_" gradientUnits="userSpaceOnUse" x1="-253.3905" y1="387.3947" x2="-252.3742" y2="387.3947" gradientTransform="matrix(7.6846 0 0 -19 1948.7581 7371.4507)">
	<stop  offset="0" style="stop-color:#1F286F"/>
	<stop  offset="0.4751" style="stop-color:#004E94"/>
	<stop  offset="0.8261" style="stop-color:#0066B1"/>
	<stop  offset="1" style="stop-color:#006FBC"/>
</linearGradient>
<path class="st4" d="M4.7,1.5C3,1.5,1.6,2.9,1.6,4.6v7.8c0.9,0.4,1.8,0.7,2.7,0.7c1.1,0,1.7-0.7,1.7-1.6V7.9h2.7v3.7
	c0,1.4-0.9,2.6-3.8,2.6c-1.8,0-3.2-0.4-3.2-0.4v6.7h4.6c1.7,0,3.1-1.4,3.1-3.2V1.5H4.7z"/>
<linearGradient id="SVGID_5_" gradientUnits="userSpaceOnUse" x1="-253.3981" y1="387.3947" x2="-252.411" y2="387.3947" gradientTransform="matrix(7.6846 0 0 -19 1957.3837 7371.4507)">
	<stop  offset="0" style="stop-color:#6C2C2F"/>
	<stop  offset="0.1735" style="stop-color:#882730"/>
	<stop  offset="0.5731" style="stop-color:#BE1833"/>
	<stop  offset="0.8585" style="stop-color:#DC0436"/>
	<stop  offset="1" style="stop-color:#E60039"/>
</linearGradient>
<path class="st5" d="M10.2,4.6v4.1c0.8-0.7,2.2-1.1,4.4-1C15.7,7.8,17,8.1,17,8.1v1.3c-0.6-0.3-1.4-0.6-2.4-0.7
	c-1.7-0.1-2.7,0.7-2.7,2.2c0,1.5,1,2.3,2.7,2.2c1-0.1,1.7-0.4,2.4-0.7v1.3c0,0-1.2,0.3-2.4,0.4c-2.2,0.1-3.6-0.3-4.4-1v7.3h4.6
	c1.7,0,3.1-1.4,3.1-3.2V1.5h-4.6C11.6,1.5,10.2,2.9,10.2,4.6z"/>
</svg>
