<?xml version="1.0" encoding="utf-8"?>
<!-- Generator: Adobe Illustrator 23.0.3, SVG Export Plug-In . SVG Version: 6.00 Build 0)  -->
<svg version="1.1" id="Слой_1" xmlns="http://www.w3.org/2000/svg" xmlns:xlink="http://www.w3.org/1999/xlink" x="0px" y="0px"
	 viewBox="0 0 24.9 19" style="enable-background:new 0 0 24.9 19;" xml:space="preserve">
<style type="text/css">
	.st0{fill:#1C1C1C;}
</style>
<g>
	<path class="st0" d="M18.8,11.3h1.8c0.1,0,0.2,0,0.2,0c0.3-0.1,0.6-0.4,0.6-0.8c0-0.4-0.3-0.7-0.6-0.8c-0.1,0-0.2,0-0.2,0h-1.8
		V11.3z"/>
	<path class="st0" d="M20.3,0c-1.7,0-3.1,1.4-3.1,3.2v3.3h4.4c0.1,0,0.2,0,0.3,0c1,0.1,1.7,0.6,1.7,1.5c0,0.7-0.5,1.3-1.4,1.4v0
		c1,0.1,1.8,0.6,1.8,1.5c0,1-0.9,1.6-2,1.6h-4.8V19h4.6c1.7,0,3.1-1.4,3.1-3.2V0H20.3z"/>
	<path class="st0" d="M21.2,8c0-0.4-0.3-0.7-0.6-0.7c0,0-0.1,0-0.2,0h-1.6v1.5h1.6c0.1,0,0.2,0,0.2,0C20.9,8.7,21.2,8.4,21.2,8z"/>
	<path class="st0" d="M3.1,0C1.4,0,0,1.4,0,3.2V11c0.9,0.4,1.8,0.7,2.7,0.7c1.1,0,1.7-0.7,1.7-1.6V6.4H7v3.7c0,1.4-0.9,2.6-3.8,2.6
		c-1.8,0-3.2-0.4-3.2-0.4V19h4.6c1.7,0,3.1-1.4,3.1-3.2V0H3.1z"/>
	<path class="st0" d="M8.6,3.2v4.1c0.8-0.7,2.2-1.1,4.4-1c1.2,0.1,2.4,0.4,2.4,0.4V8c-0.6-0.3-1.4-0.6-2.4-0.7
		c-1.7-0.1-2.7,0.7-2.7,2.2c0,1.5,1,2.3,2.7,2.2c1-0.1,1.7-0.4,2.4-0.7v1.3c0,0-1.2,0.3-2.4,0.4c-2.2,0.1-3.6-0.3-4.4-1V19h4.6
		c1.7,0,3.1-1.4,3.1-3.2V0h-4.6C10,0,8.6,1.4,8.6,3.2z"/>
</g>
</svg>
