<?xml version="1.0" encoding="utf-8"?>
<!-- Generator: Adobe Illustrator 22.1.0, SVG Export Plug-In . SVG Version: 6.00 Build 0)  -->
<svg version="1.1" id="Layer_1" xmlns="http://www.w3.org/2000/svg" xmlns:xlink="http://www.w3.org/1999/xlink" x="0px" y="0px"
	 viewBox="0 0 33.44882 25.22835" style="enable-background:new 0 0 33.44882 25.22835;" xml:space="preserve">
<style type="text/css">
	.st0{fill:#FFFFFF;}
</style>
<g>
	<g>
		<path d="M12.20913,10.16654c0-3.34265,1.50497-6.33609,3.86736-8.35309c-1.65385-1.1545-3.66014-1.83711-5.82545-1.83711
			c-5.62876,0-10.20846,4.57971-10.20846,10.20897c0,5.62876,4.57971,10.20846,10.20846,10.20846
			c2.17552,0,4.18999-0.68964,5.84828-1.8541C13.72335,16.52273,12.20913,13.51996,12.20913,10.16654z"/>
		<path d="M21.23868,10.18531c0,3.34226-1.50484,6.33552-3.86711,8.35246c1.65379,1.15425,3.66001,1.83673,5.8252,1.83673
			c5.62977,0,10.20948-4.5792,10.20948-10.20796c0-5.62926-4.5797-10.20897-10.20948-10.20897
			c-2.17546,0-4.18986,0.68964-5.84809,1.85404C19.72452,3.82873,21.23868,6.83169,21.23868,10.18531z"/>
		<path d="M16.71135,2.28851c-1.24765,1.02901-2.24547,2.34933-2.89358,3.85424c-0.02004,0.04781-0.03969,0.09569-0.05897,0.14381
			c-0.09334,0.22618-0.17641,0.45744-0.25358,0.69142c-0.06132,0.19124-0.11617,0.38515-0.1667,0.58096
			c-0.03285,0.12397-0.06785,0.24711-0.09607,0.37291c-0.15821,0.72363-0.24622,1.47339-0.24622,2.24382
			c0,0.39498,0.02295,0.7847,0.06563,1.16852c0.00507,0.04375,0.01427,0.08624,0.01985,0.1298
			c0.03741,0.30139,0.08903,0.59827,0.15149,0.89122c0.04401,0.1993,0.09664,0.39536,0.15212,0.59015
			c0.03069,0.11141,0.06125,0.2227,0.0955,0.33265c0.60899,1.89063,1.75265,3.54277,3.25577,4.77469
			c1.25133-1.03199,2.25181-2.35662,2.89973-3.86698c0.01509-0.03633,0.02999-0.0726,0.0447-0.10907
			c0.09835-0.23684,0.18522-0.47938,0.26581-0.72477c0.05662-0.1771,0.10703-0.35668,0.15434-0.53771
			c0.03703-0.13792,0.07565-0.27507,0.10697-0.41521c0.07463-0.34317,0.1376-0.69079,0.17774-1.04544c0-0.00006,0,0,0-0.00006
			c0.04407-0.38991,0.06671-0.78628,0.06671-1.18779c0-0.3913-0.02308-0.77715-0.06499-1.15742
			c-0.00786-0.06886-0.022-0.13576-0.03126-0.20418c-0.03583-0.27526-0.0818-0.54729-0.13861-0.81551
			c-0.04743-0.2161-0.10386-0.42865-0.16474-0.63942c-0.02632-0.09429-0.05206-0.1889-0.08097-0.28211
			C19.36416,5.1805,18.21796,3.52354,16.71135,2.28851z"/>
	</g>
	<path d="M9.7899,25.18993v-1.64835c0.01996-0.27971-0.08465-0.55426-0.28711-0.75357
		c-0.20247-0.19931-0.48321-0.30411-0.77058-0.28764c-0.37969-0.02424-0.74283,0.15471-0.94769,0.46703
		c-0.18678-0.30301-0.52877-0.48221-0.89128-0.46703c-0.31564-0.01554-0.61612,0.13289-0.78974,0.39011v-0.32418H5.51682v2.62363
		h0.59231v-1.4533c-0.02658-0.18205,0.03221-0.3661,0.16012-0.50134c0.12791-0.13524,0.31143-0.20737,0.49988-0.19646
		c0.38923,0,0.58667,0.24725,0.58667,0.69231v1.45879H7.9481v-1.4533c-0.02446-0.18164,0.03505-0.36448,0.16248-0.49922
		c0.12743-0.13473,0.30966-0.20747,0.49752-0.19858c0.40051,0,0.59231,0.24725,0.59231,0.69231v1.45879H9.7899z M13.0899,23.87949
		v-1.31044h-0.59231v0.31868c-0.20182-0.25368-0.51691-0.3969-0.84615-0.38462c-0.77886,0-1.41026,0.61499-1.41026,1.37363
		s0.63139,1.37363,1.41026,1.37363c0.32924,0.01229,0.64434-0.13094,0.84615-0.38461v0.31868h0.58667L13.0899,23.87949z
		 M10.90964,23.87949c0.02609-0.43114,0.4012-0.76288,0.84429-0.74669c0.44309,0.0162,0.79161,0.3744,0.78445,0.80623
		c-0.00717,0.43183-0.36739,0.77887-0.81079,0.78111c-0.22701,0.00519-0.44575-0.08306-0.60251-0.24307
		c-0.15676-0.16001-0.23702-0.37696-0.22108-0.59759H10.90964z M25.62426,22.50587c0.19314-0.00049,0.3846,0.03495,0.5641,0.10439
		c0.17134,0.06683,0.32754,0.16577,0.45974,0.29121c0.1305,0.12431,0.23408,0.27284,0.30462,0.43681
		c0.14736,0.35224,0.14736,0.74666,0,1.0989c-0.07047,0.16401-0.17406,0.31256-0.30462,0.43681
		c-0.13221,0.12544-0.28841,0.22438-0.45974,0.29121c-0.37193,0.14077-0.78449,0.14077-1.15641,0
		c-0.17054-0.06676-0.32582-0.16574-0.45692-0.29121c-0.12925-0.12474-0.23183-0.27321-0.3018-0.43681
		c-0.14706-0.3523-0.14706-0.7466,0-1.0989c0.06997-0.1636,0.17254-0.31207,0.3018-0.43681
		c0.1311-0.12547,0.28639-0.22444,0.45692-0.29121c0.18595-0.07508,0.38538-0.11336,0.58667-0.11264L25.62426,22.50587z
		 M25.62426,23.05532c-0.11487-0.00153-0.22892,0.01901-0.33564,0.06044c-0.10052,0.03926-0.19171,0.09816-0.26795,0.17308
		c-0.07778,0.07887-0.13824,0.17234-0.17769,0.27472c-0.08616,0.21935-0.08616,0.46197,0,0.68132
		c0.03938,0.10242,0.09985,0.19591,0.17769,0.27472c0.07619,0.07498,0.16739,0.13389,0.26795,0.17308
		c0.21488,0.08195,0.45358,0.08195,0.66846,0c0.10536-0.03794,0.20143-0.09689,0.28205-0.17308
		c0.07796-0.07872,0.13845-0.17224,0.17769-0.27472c0.08617-0.21935,0.08617-0.46197,0-0.68132
		c-0.03924-0.10249-0.09973-0.196-0.17769-0.27472c-0.08062-0.07619-0.17669-0.13514-0.28205-0.17308
		c-0.1064-0.04744-0.22149-0.0736-0.33846-0.07692L25.62426,23.05532z M16.27708,23.87949
		c0-0.82418-0.52462-1.37363-1.27769-1.37363c-0.77886,0.01062-1.40142,0.63422-1.39051,1.39286
		c0.0109,0.75863,0.65114,1.36502,1.43,1.35439c0.40155,0.01336,0.7941-0.11767,1.10282-0.36813l-0.28205-0.42308
		c-0.22272,0.17398-0.49864,0.27065-0.7841,0.27472c-0.40323,0.03378-0.76081-0.25119-0.80667-0.64286h1.99974
		C16.27708,24.0251,16.27708,23.95642,16.27708,23.87949z M14.27169,23.64872c0.02264-0.36243,0.33526-0.64267,0.70795-0.63461
		c0.1773-0.00368,0.34883,0.06141,0.47685,0.18095c0.12801,0.11954,0.20202,0.28372,0.20572,0.45642L14.27169,23.64872z
		 M18.74503,23.23664c-0.25758-0.14446-0.54895-0.22203-0.84616-0.22528c-0.32154,0-0.51333,0.11539-0.51333,0.30769
		c0,0.19231,0.20308,0.22528,0.45692,0.25824l0.28205,0.03846c0.58667,0.08242,0.94205,0.32417,0.94205,0.78571
		s-0.45128,0.85714-1.22692,0.85714c-0.41571,0.01077-0.824-0.10863-1.16487-0.34066l0.28205-0.44506
		c0.25884,0.18704,0.57476,0.28381,0.89692,0.27473c0.40051,0,0.61487-0.11539,0.61487-0.31868
		c0-0.14835-0.15231-0.23077-0.47385-0.27472l-0.28205-0.03846c-0.60359-0.08242-0.93077-0.34616-0.93077-0.77472
		c0-0.52198,0.44-0.84066,1.1282-0.84066c0.38518-0.01257,0.76598,0.08278,1.09718,0.27472L18.74503,23.23664z M21.56554,23.08828
		h-0.95615v1.18407c0,0.27472,0.0959,0.43956,0.38923,0.43956c0.18309-0.00591,0.36165-0.05695,0.51897-0.14835l0.16923,0.48901
		c-0.21991,0.13367-0.47411,0.20414-0.73333,0.2033c-0.69385,0-0.93641-0.36264-0.93641-0.97253v-1.19506H19.4699v-0.52198h0.54718
		v-0.7967h0.59231v0.7967h0.95615V23.08828z M23.59349,22.50037c0.1423,0.00054,0.28347,0.02469,0.41743,0.07143l-0.18051,0.54945
		c-0.11658-0.04527-0.24118-0.06768-0.36667-0.06593c-0.38359,0-0.5641,0.24176-0.5641,0.67583v1.46978h-0.58667V22.5773H22.894
		v0.31868c0.14666-0.24538,0.41939-0.39296,0.71077-0.38462L23.59349,22.50037z"/>
</g>
</svg>
