<?xml version="1.0" encoding="utf-8"?>
<!-- Generator: Adobe Illustrator 23.0.3, SVG Export Plug-In . SVG Version: 6.00 Build 0)  -->
<svg version="1.1" id="Слой_1" xmlns="http://www.w3.org/2000/svg" xmlns:xlink="http://www.w3.org/1999/xlink" x="0px" y="0px"
	 viewBox="0 0 32.9 20.3" style="enable-background:new 0 0 32.9 20.3;" xml:space="preserve">
<style type="text/css">
	.st0{fill:#FF5F00;}
	.st1{fill:#EB001B;}
	.st2{fill:#F79E1B;}
</style>
<g transform="translate(0 1)">
	<rect x="12" y="1.2" class="st0" width="8.9" height="16"/>
	<path class="st1" d="M12.5,9.2c0-3.1,1.4-6.1,3.9-8C12.3-2.1,6.3-1.6,2.7,2.3s-3.6,9.9,0,13.8s9.6,4.4,13.7,1.1
		C14,15.2,12.5,12.3,12.5,9.2z"/>
	<path class="st2" d="M32.9,9.2c0,3.9-2.2,7.4-5.7,9.1c-3.5,1.7-7.7,1.3-10.7-1.2c2.4-1.9,3.9-4.9,3.9-8s-1.4-6.1-3.9-8
		c3.1-2.4,7.2-2.8,10.7-1.2S32.9,5.3,32.9,9.2L32.9,9.2z"/>
</g>
</svg>
