<?xml version="1.0" encoding="utf-8"?>
<!-- Generator: Adobe Illustrator 22.1.0, SVG Export Plug-In . SVG Version: 6.00 Build 0)  -->
<svg version="1.1" id="Layer_1" xmlns="http://www.w3.org/2000/svg" xmlns:xlink="http://www.w3.org/1999/xlink" x="0px" y="0px"
	 viewBox="0 0 33.44882 25.22835" style="enable-background:new 0 0 33.44882 25.22835;" xml:space="preserve">
<style type="text/css">
	.st0{fill:#FFFFFF;}
</style>
<g>
	<g>
		<path d="M12.20913,10.17096c0-3.34264,1.50497-6.33609,3.86736-8.35309c-1.65385-1.1545-3.66014-1.83711-5.82545-1.83711
			c-5.62876,0-10.20846,4.57971-10.20846,10.20897c0,5.62876,4.57971,10.20846,10.20846,10.20846
			c2.17552,0,4.18999-0.68964,5.84828-1.8541C13.72335,16.52715,12.20913,13.52438,12.20913,10.17096z"/>
		<path d="M21.23868,10.18973c0,3.34227-1.50484,6.33552-3.86711,8.35246c1.65379,1.15425,3.66001,1.83673,5.8252,1.83673
			c5.62977,0,10.20948-4.5792,10.20948-10.20796c0-5.62926-4.5797-10.20897-10.20948-10.20897
			c-2.17546,0-4.18986,0.68964-5.84809,1.85404C19.72452,3.83315,21.23868,6.83611,21.23868,10.18973z"/>
		<path d="M16.71135,2.29293c-1.24765,1.02901-2.24547,2.34933-2.89358,3.85423c-0.02004,0.04781-0.03969,0.09569-0.05897,0.14381
			c-0.09334,0.22618-0.17641,0.45744-0.25358,0.69142c-0.06132,0.19124-0.11617,0.38515-0.1667,0.58096
			c-0.03285,0.12397-0.06785,0.24711-0.09607,0.37291c-0.15821,0.72363-0.24622,1.47339-0.24622,2.24382
			c0,0.39498,0.02295,0.7847,0.06563,1.16852c0.00507,0.04375,0.01427,0.08624,0.01985,0.1298
			c0.03741,0.30139,0.08903,0.59827,0.15149,0.89122c0.04401,0.1993,0.09664,0.39536,0.15212,0.59015
			c0.03069,0.11141,0.06125,0.2227,0.0955,0.33265c0.60899,1.89062,1.75265,3.54277,3.25577,4.77469
			c1.25133-1.03199,2.25181-2.35662,2.89973-3.86698c0.01509-0.03633,0.02999-0.0726,0.0447-0.10907
			c0.09835-0.23684,0.18522-0.47938,0.26581-0.72477c0.05662-0.1771,0.10703-0.35668,0.15434-0.53771
			c0.03703-0.13792,0.07565-0.27507,0.10697-0.41521c0.07463-0.34317,0.1376-0.69079,0.17774-1.04544c0-0.00006,0,0,0-0.00006
			c0.04407-0.38991,0.06671-0.78628,0.06671-1.18779c0-0.3913-0.02308-0.77715-0.06499-1.15742
			c-0.00786-0.06886-0.022-0.13576-0.03126-0.20418c-0.03583-0.27526-0.0818-0.54729-0.13861-0.81551
			c-0.04743-0.2161-0.10386-0.42865-0.16474-0.63942c-0.02632-0.09429-0.05206-0.1889-0.08097-0.28211
			C19.36416,5.18492,18.21796,3.52796,16.71135,2.29293z"/>
	</g>
	<path d="M5.59432,25.18738v-1.69231c0.01995-0.28792-0.08495-0.5705-0.28795-0.77566
		c-0.203-0.20515-0.48445-0.31304-0.77257-0.29614c-0.37969-0.02489-0.74283,0.15884-0.94769,0.47949
		c-0.18678-0.31108-0.52877-0.49507-0.89128-0.47949c-0.31564-0.01596-0.61612,0.13643-0.78974,0.40051v-0.33282H1.31842v2.69641
		h0.59231v-1.48359c-0.02551-0.18669,0.03364-0.37503,0.16131-0.51361c0.12767-0.13858,0.31053-0.21295,0.49869-0.2028
		c0.38923,0,0.58667,0.25385,0.58667,0.71077v1.50051H3.7497v-1.49487c-0.02446-0.18648,0.03505-0.3742,0.16248-0.51253
		s0.30966-0.213,0.49752-0.20388c0.40051,0,0.59231,0.25385,0.59231,0.71077v1.50051L5.59432,25.18738z M14.35765,22.49097h-0.96461
		v-0.81795h-0.59231v0.81795h-0.5359v0.5359h0.54718v1.24103c0,0.62615,0.24256,0.99846,0.93641,0.99846
		c0.25922,0.00087,0.51342-0.07148,0.73333-0.20872l-0.16923-0.50205c-0.15733,0.09384-0.33589,0.14624-0.51897,0.15231
		c-0.28205,0-0.38923-0.18051-0.38923-0.45128v-1.22974h0.95897L14.35765,22.49097z M19.36124,22.42327
		c-0.29138-0.00857-0.56411,0.14294-0.71077,0.39487v-0.32718h-0.58103v2.69641h0.58667v-1.5118
		c0-0.44564,0.1918-0.69385,0.5641-0.69385c0.12548-0.00172,0.25007,0.02128,0.36667,0.06769l0.18051-0.5641
		c-0.13398-0.04793-0.27514-0.07273-0.41744-0.07333L19.36124,22.42327z M11.79662,22.70533
		c-0.33208-0.19744-0.71389-0.29534-1.1-0.28205c-0.68256,0-1.12821,0.32718-1.12821,0.86308
		c0,0.44,0.32718,0.71077,0.93077,0.79538l0.28205,0.03949c0.32154,0.04513,0.47385,0.12974,0.47385,0.28205
		c0,0.20872-0.21436,0.32718-0.61487,0.32718c-0.32216,0.00933-0.63808-0.09002-0.89692-0.28205l-0.28205,0.45692
		c0.34174,0.23861,0.75105,0.36121,1.16769,0.34974c0.77846,0,1.22974-0.36667,1.22974-0.88
		c0-0.51333-0.35538-0.72205-0.94205-0.80667l-0.28205-0.03949c-0.25385-0.03385-0.45692-0.08462-0.45692-0.26513
		c0-0.18051,0.19179-0.3159,0.51333-0.3159c0.29719,0.00345,0.58853,0.08308,0.84615,0.23128L11.79662,22.70533z M27.5097,22.42327
		c-0.29138-0.00857-0.56411,0.14294-0.71077,0.39487v-0.32718h-0.58103v2.69641h0.58667v-1.5118
		c0-0.44564,0.19179-0.69385,0.5641-0.69385c0.12548-0.00172,0.25007,0.02128,0.36667,0.06769l0.18051-0.5641
		c-0.13398-0.04793-0.27514-0.07273-0.41743-0.07333L27.5097,22.42327z M19.95073,23.83353
		c-0.01411,0.38315,0.13389,0.75451,0.40767,1.02292s0.64799,0.40903,1.03079,0.38734
		c0.35225,0.01792,0.69843-0.0968,0.97026-0.32154l-0.28205-0.47385c-0.2028,0.15465-0.4501,0.23972-0.70513,0.24257
		c-0.44967-0.03638-0.79606-0.41193-0.79606-0.86308s0.34639-0.82669,0.79606-0.86308
		c0.25503,0.00284,0.50233,0.08791,0.70513,0.24257l0.28205-0.47385c-0.27183-0.22474-0.61801-0.33946-0.97026-0.32154
		c-0.38279-0.02169-0.75701,0.11893-1.03079,0.38734s-0.42178,0.63977-0.40767,1.02292V23.83353z M25.44509,23.83353v-1.34256
		h-0.58667v0.32718c-0.20212-0.26007-0.51701-0.40701-0.84616-0.39487c-0.77886,0-1.41026,0.63139-1.41026,1.41026
		c0,0.77886,0.63139,1.41026,1.41026,1.41026c0.32915,0.01214,0.64404-0.13481,0.84616-0.39487v0.32718h0.58667V23.83353z
		 M23.26201,23.83353c0.02609-0.44263,0.4012-0.78322,0.84429-0.76659c0.44309,0.01663,0.79161,0.38439,0.78445,0.82773
		s-0.36739,0.79964-0.81079,0.80194c-0.22577,0.00286-0.44247-0.08871-0.59779-0.25259
		C23.32685,24.28013,23.24704,24.05882,23.26201,23.83353z M16.18252,22.42327c-0.77886,0.0109-1.40142,0.65114-1.39051,1.43
		c0.0109,0.77886,0.65114,1.40142,1.43,1.39051c0.4058,0.02083,0.80486-0.10985,1.11974-0.36667l-0.28205-0.43436
		c-0.22272,0.17862-0.49864,0.27787-0.7841,0.28205c-0.40323,0.03468-0.76081-0.25789-0.80667-0.66h2.00256
		c0-0.07333,0-0.14667,0-0.22564c0-0.84615-0.52461-1.41026-1.28051-1.41026L16.18252,22.42327z M16.18252,22.94789
		c0.1773-0.00378,0.34883,0.06305,0.47685,0.18577c0.12801,0.12272,0.20201,0.29129,0.20572,0.46859h-1.41026
		c0.02125-0.37659,0.33944-0.66722,0.71641-0.65436H16.18252z M30.88021,23.83917v-2.43128h-0.5641v1.41026
		c-0.20212-0.26007-0.51701-0.40701-0.84615-0.39487c-0.77886,0-1.41026,0.63139-1.41026,1.41026
		c0,0.77886,0.63139,1.41026,1.41026,1.41026c0.32915,0.01214,0.64404-0.13481,0.84615-0.39487v0.32718h0.5641V23.83917z
		 M28.71124,23.83917c0.02609-0.44263,0.4012-0.78323,0.84429-0.7666c0.44309,0.01663,0.79161,0.38439,0.78445,0.82773
		s-0.3674,0.79964-0.81079,0.80194c-0.22577,0.00286-0.44248-0.08871-0.59779-0.2526
		C28.77608,24.28577,28.69627,24.06446,28.71124,23.83917z M8.90278,23.83917v-1.34821H8.31611v0.32718
		c-0.20212-0.26007-0.51701-0.40701-0.84615-0.39487c-0.77886,0-1.41026,0.63139-1.41026,1.41026
		c0,0.77886,0.63139,1.41026,1.41026,1.41026c0.32915,0.01214,0.64404-0.13481,0.84615-0.39487v0.32718h0.58667V23.83917z
		 M6.7197,23.83917c0.02609-0.44263,0.4012-0.78323,0.84429-0.7666c0.44309,0.01663,0.79161,0.38439,0.78445,0.82773
		s-0.36739,0.79964-0.81079,0.80194c-0.22674,0.00445-0.44496-0.08642-0.60152-0.25049
		c-0.15657-0.16407-0.23712-0.3863-0.22207-0.61259H6.7197z"/>
</g>
</svg>
