<?xml version="1.0" encoding="utf-8"?>
<!-- Generator: Adobe Illustrator 23.0.3, SVG Export Plug-In . SVG Version: 6.00 Build 0)  -->
<svg version="1.1" id="Слой_1" xmlns="http://www.w3.org/2000/svg" xmlns:xlink="http://www.w3.org/1999/xlink" x="0px" y="0px"
	 viewBox="0 0 31.5 8.8" style="enable-background:new 0 0 31.5 8.8;" xml:space="preserve">
<style type="text/css">
	.st0{fill:#FFFFFF;}
	.st1{fill-rule:evenodd;clip-rule:evenodd;fill:#FFFFFF;}
</style>
<path class="st0" d="M22.3,0c0,0.2,0,0.5,0.1,0.7c0,0.1,0,0.1,0,0.1l0,0.1c0.5,1.6,2,2.8,3.8,2.8h5.2C31.8,2,30.6,0.4,28.9,0
	c-0.2,0-0.4,0-0.5,0L22.3,0L22.3,0z"/>
<path class="st1" d="M17.4,0.9l-2,4.3h-0.2V0h-2.8v8.8h2.4c0.6,0,1.2-0.4,1.5-0.9l2-4.3h0.2v5.2h2.8V0h-2.4
	C18.3,0,17.7,0.4,17.4,0.9L17.4,0.9z M22.4,4.2v4.6h2.8V6.2h2.8c1.5,0,2.8-0.8,3.2-2L22.4,4.2L22.4,4.2z M5.5,5.2L4.4,1.2
	C4.2,0.5,3.5,0,2.8,0H0v8.8h2.8V3.6H3l1.6,5.2h2l1.6-5.2h0.2v5.2h2.8V0H8.4C7.7,0,7.1,0.5,6.9,1.2L5.7,5.2L5.5,5.2L5.5,5.2z"/>
</svg>
