<svg width="26" height="19" viewBox="0 0 26 19" fill="none" xmlns="http://www.w3.org/2000/svg"><path d="M19.5 15.3636H21.8636C22.2182 15.3636 22.4545 15.1273 22.4545 14.7727V12.4091C22.4545 12.0545 22.2182 11.8182 21.8636 11.8182H19.5C19.1455 11.8182 18.9091 12.0545 18.9091 12.4091V14.7727C18.9091 15.1273 19.1455 15.3636 19.5 15.3636ZM24.8182 0H1.18182C0.531818 0 0 0.531818 0 1.18182V17.7273C0 18.3773 0.531818 18.9091 1.18182 18.9091H24.8182C25.4682 18.9091 26 18.3773 26 17.7273V1.18182C26 0.531818 25.4682 0 24.8182 0ZM24.8182 15.7273C24.8182 16.8318 23.9228 17.7273 22.8182 17.7273H3.18182C2.07725 17.7273 1.18182 16.8318 1.18182 15.7273V10.2727C1.18182 9.16816 2.07725 8.27273 3.18182 8.27273H22.8182C23.9228 8.27273 24.8182 9.16816 24.8182 10.2727V15.7273ZM24.8182 2.36364C24.8182 3.01634 24.2891 3.54545 23.6364 3.54545H2.36364C1.71094 3.54545 1.18182 3.01634 1.18182 2.36364C1.18182 1.71094 1.71094 1.18182 2.36364 1.18182H23.6364C24.2891 1.18182 24.8182 1.71094 24.8182 2.36364ZM4.13636 13H14.7727C15.1273 13 15.3636 12.7636 15.3636 12.4091C15.3636 12.0545 15.1273 11.8182 14.7727 11.8182H4.13636C3.78182 11.8182 3.54545 12.0545 3.54545 12.4091C3.54545 12.7636 3.78182 13 4.13636 13ZM4.13636 15.3636H12.4091C12.7636 15.3636 13 15.1273 13 14.7727C13 14.4182 12.7636 14.1818 12.4091 14.1818H4.13636C3.78182 14.1818 3.54545 14.4182 3.54545 14.7727C3.54545 15.1273 3.78182 15.3636 4.13636 15.3636Z" fill="#067EFF"/></svg>
