<svg xmlns="http://www.w3.org/2000/svg" width="26" height="20" fill="none">
    <path fill="#B7C7DC" d="M19.5 15.94h2.36c.36 0 .6-.24.6-.6v-2.37c0-.36-.24-.6-.6-.6H19.5c-.35 0-.6.24-.6.6v2.37c0 .36.25.6.6.6ZM24.82.5H1.18C.53.5 0 1.03 0 1.69V18.3c0 .66.53 1.19 1.18 1.19h23.64c.65 0 1.18-.53 1.18-1.19V1.7C26 1.03 25.47.5 24.82.5Zm0 15.81a2 2 0 0 1-2 2H3.18a2 2 0 0 1-2-2v-5.5c0-1.1.9-2 2-2h19.64a2 2 0 0 1 2 2v5.5Zm0-13.43c0 .65-.53 1.18-1.19 1.18H2.37a1.19 1.19 0 1 1 0-2.37h21.26c.66 0 1.19.53 1.19 1.19ZM4.14 13.55h10.63c.36 0 .6-.24.6-.6 0-.35-.24-.59-.6-.59H4.14c-.36 0-.6.24-.6.6 0 .35.24.6.6.6Zm0 2.38h8.27c.35 0 .59-.24.59-.6 0-.35-.24-.59-.6-.59H4.15c-.36 0-.6.24-.6.6 0 .35.24.59.6.59Z"/>
</svg>
