<?xml version="1.0" encoding="utf-8"?>
<!-- Generator: Adobe Illustrator 23.0.3, SVG Export Plug-In . SVG Version: 6.00 Build 0)  -->
<svg version="1.1" id="Слой_1" xmlns="http://www.w3.org/2000/svg" xmlns:xlink="http://www.w3.org/1999/xlink" x="0px" y="0px"
	 viewBox="0 0 32.9 19.8" style="enable-background:new 0 0 32.9 19.8;" xml:space="preserve">
<style type="text/css">
	.st0{fill:#7673C0;}
	.st1{fill:#EB001B;}
	.st2{fill:#00A1DF;}
</style>
<g transform="translate(0 1)">
	<rect x="12" y="1.1" class="st0" width="8.9" height="15.6"/>
	<path class="st1" d="M12.5,8.9c0-3,1.4-5.9,3.9-7.8C12.3-2.1,6.3-1.6,2.7,2.2s-3.6,9.6,0,13.4s9.6,4.3,13.7,1.1
		C14,14.8,12.5,11.9,12.5,8.9z"/>
	<path class="st2" d="M32.9,8.9c0,3.8-2.2,7.2-5.7,8.9c-3.5,1.7-7.7,1.2-10.7-1.1c2.4-1.9,3.9-4.7,3.9-7.8S18.9,3,16.4,1.1
		c3.1-2.3,7.2-2.8,10.7-1.1S32.9,5.1,32.9,8.9L32.9,8.9z"/>
</g>
</svg>
