<?xml version="1.0" encoding="utf-8"?>
<!-- Generator: Adobe Illustrator 23.0.3, SVG Export Plug-In . SVG Version: 6.00 Build 0)  -->
<svg version="1.1" id="Слой_1" xmlns="http://www.w3.org/2000/svg" xmlns:xlink="http://www.w3.org/1999/xlink" x="0px" y="0px"
	 viewBox="0 0 32.8 10" style="enable-background:new 0 0 32.8 10;" xml:space="preserve">
<style type="text/css">
	.st0{fill-rule:evenodd;clip-rule:evenodd;fill:#FFFFFF;}
</style>
<g transform="translate(0 8)">
	<polygon class="st0" points="13.2,-7.9 15.8,-7.9 14.2,1.7 11.5,1.7 	"/>
	<path class="st0" d="M23.8-7.6C23.3-7.8,22.5-8,21.4-8c-2.6,0-4.5,1.3-4.5,3.2c0,1.4,1.3,2.2,2.3,2.6c1,0.5,1.4,0.8,1.4,1.2
		c0,0.6-0.8,0.9-1.6,0.9c-1.1,0-1.6-0.1-2.5-0.5l-0.3-0.2l-0.4,2.2c0.6,0.3,1.8,0.5,3,0.5c2.8,0,4.6-1.3,4.6-3.3
		c0-1.1-0.7-1.9-2.2-2.6c-0.9-0.4-1.5-0.7-1.5-1.2c0-0.4,0.5-0.8,1.5-0.8c0.9,0,1.5,0.2,2,0.4l0.2,0.1L23.8-7.6"/>
	<path class="st0" d="M30.6-7.8h-2c-0.6,0-1.1,0.2-1.4,0.8l-3.9,8.8H26c0,0,0.5-1.2,0.6-1.4c0.3,0,3,0,3.4,0
		c0.1,0.3,0.3,1.4,0.3,1.4h2.5L30.6-7.8L30.6-7.8z M27.3-1.6c0.2-0.6,1.1-2.7,1.1-2.7c0,0,0.2-0.6,0.4-0.9l0.2,0.8
		c0,0,0.5,2.3,0.6,2.8L27.3-1.6L27.3-1.6z"/>
	<g transform="translate(.006 .164)">
		<path class="st0" d="M9.3-8L6.7-1.4L6.4-2.7C6-4.3,4.4-6,2.8-6.8l2.4,8.4l2.8,0L12.1-8H9.3"/>
		<path class="st0" d="M4.3-8H0l0,0.2c3.3,0.8,5.5,2.7,6.4,5L5.5-7.2C5.3-7.8,4.9-8,4.3-8"/>
	</g>
</g>
</svg>
